<svg height="512" viewBox="0 0 64 64" width="512" xmlns="http://www.w3.org/2000/svg"><path d="m23 4a19 19 0 1 0 19 19 19.021 19.021 0 0 0 -19-19zm0 36a17 17 0 1 1 17-17 17.019 17.019 0 0 1 -17 17z"/><path d="m23 8a15 15 0 1 0 15 15 15.017 15.017 0 0 0 -15-15zm.781 27.625a1 1 0 0 1 -1.562 0c-.335-.42-8.219-10.347-8.219-16.625a9 9 0 0 1 18 0c0 6.278-7.884 16.205-8.219 16.625z"/><path d="m23 12a7.009 7.009 0 0 0 -7 7c0 4.512 5.026 11.7 7 14.354 1.973-2.654 7-9.847 7-14.354a7.009 7.009 0 0 0 -7-7zm0 12a5 5 0 1 1 5-5 5.006 5.006 0 0 1 -5 5z"/><circle cx="23" cy="19" r="3"/><path d="m42.758 38.515-4.243 4.243 16.263 16.263a3.075 3.075 0 0 0 4.243 0 3 3 0 0 0 0-4.243zm10.949 16.606-5.656-5.656 1.414-1.414 5.656 5.656zm2.828 2.828-1.414-1.414 1.414-1.414 1.414 1.414z"/><path d="m38.516 37.1q-.673.742-1.416 1.416l1.41 1.41 1.416-1.416z"/><path d="m60 7a3 3 0 0 0 -6 0c0 1.746 1.762 4.6 3 6.334 1.237-1.734 3-4.591 3-6.334zm-4-1h2v2h-2z"/><path d="m7 49a3 3 0 0 0 -3 3c0 1.746 1.762 4.6 3 6.334 1.237-1.734 3-4.591 3-6.334a3 3 0 0 0 -3-3zm1 4h-2v-2h2z"/><path d="m56 18h2v4h-2z"/><path d="m56 24h2v4h-2z"/><path d="m54 30h4v2h-4z"/><path d="m48 30h4v2h-4z"/><path d="m16 59h4v2h-4z"/><path d="m10 59h4v2h-4z"/><path d="m22 51h2v4h-2z"/><path d="m22 57h2v4h-2z"/></svg>